<svg xmlns="http://www.w3.org/2000/svg" viewBox="0 0 32 32">
  <defs>
    <linearGradient id="grad1" x1="0%" y1="0%" x2="100%" y2="100%">
      <stop offset="0%" style="stop-color:#003366;stop-opacity:1" />
      <stop offset="100%" style="stop-color:#00d4ff;stop-opacity:1" />
    </linearGradient>
  </defs>
  
  <!-- Background circle -->
  <circle cx="16" cy="16" r="15" fill="url(#grad1)" stroke="#fff" stroke-width="1"/>
  
  <!-- Code brackets -->
  <path d="M8 10 L6 12 L8 14 L10 12 Z" fill="#fff" opacity="0.9"/>
  <path d="M24 10 L22 12 L24 14 L26 12 Z" fill="#fff" opacity="0.9"/>
  
  <!-- Central "UR" for Usama Razzaq -->
  <!-- U -->
  <path d="M8 8 Q8 6 10 6 L12 6 Q14 6 14 8 L14 16 Q14 18 12 18 L10 18 Q8 18 8 16 Z" 
        fill="none" stroke="#fff" stroke-width="1.5" stroke-linecap="round"/>
  <!-- R -->
  <path d="M18 6 L18 18 M18 6 L22 6 Q24 6 24 8 L24 10 Q24 12 22 12 L18 12 M22 12 L24 18" 
        fill="none" stroke="#fff" stroke-width="1.5" stroke-linecap="round" stroke-linejoin="round"/>
  
  <!-- Tech dots -->
  <circle cx="10" cy="20" r="1" fill="#fff" opacity="0.7"/>
  <circle cx="22" cy="20" r="1" fill="#fff" opacity="0.7"/>
  <circle cx="16" cy="24" r="1" fill="#fff" opacity="0.7"/>
</svg>
